<?xml version="1.0" encoding="UTF-8"?>
<svg id="Layer_1" data-name="Layer 1" xmlns="http://www.w3.org/2000/svg" viewBox="0 0 520.06 559.69">
  <path d="M441.11,271.41l.61-.75c.79-6.48-3.38-13-4.04-19.08-1.11-10.22,4.7-20.96.12-31.6l-3.76-9.23c1.35,8.97-1.8,15.21-5.7,22.81-1.01,1.98-3.22,4.46-3.41,6.66-.37,4.35,3.69,10.07,2.51,13.88-.93,2.98-3.11,1.25-4.98,1.36-5.26.32-13.27,9.82-19.33,11.28-9.08,2.19-11.63-2.53-18.46-2.5-7.25.03-9.37,6.11-16.3,7.87-9.01,2.28-19.23,2.34-28.46,1.63-4.05,6.93-10.52,11.14-17.23,15.19-.38.23-.87.29-1.31.27.71,1.18.78,3.06,1.6,4.1s2.04.84,2.72,1.84c1.19,1.73,1.9,6.14,3.06,8.34s3.66,4.22,5.13,6.28c16.82,23.64,6.14,41.13,8.53,67.19.88,9.58,5.54,19.53,8.27,28.67,8.97,29.97,7.65,56.04.66,86.2-3.29,14.22-6.18,23.65-7.63,38.45-.65,6.62-2.03,13-3.88,19.39-1.09,1.53-27.32,6.2-31.09,6.77-24.63,3.7-49.39,4.14-74.2,1.92-.65-.15-1.64-3.86-1.57-4.7.31-3.88,7.53-6.12,9.13-9.12,1.16-2.18,2.14-7.63,3.2-10.49,2.1-5.66,4.65-11.15,7.11-16.65.46-2.7-4.06-6-2.83-9.14l16.04-27.81c.25-5.48-8.4-14.56-6.41-19.16.87-2.02,4.09-1.96,5.91-2.76,6.53-2.86,16.23-12.54,20.39-18.38,9.05-12.67,7.06-27.34,8.99-42.1,2.41-18.46,11.62-32.11,8.56-51.54-2.7-17.17-13.56-34.98-.18-50.46,2.49-2.88,5.32-3.65,8.2-5.94,1.75-1.39,3.06-3.37,5.03-4.55,1.2-.72,3.43-.46,3.42-2.28-1.34.43-2.93.76-4.33.91-14.71,1.58-19.54-.61-33.15-4.25-1.96-.52-4.05-.51-5.87-.97-6.22-1.56-14.56-8.25-18.22-13.47l6.54,4.63c8.34,5.07,24.85,8.52,34.75,9.49,12.12,1.19,28.76-3.31,37.35-12.35,5.48-5.77-1.42-7.07-4.74-10.68-5.39-5.85,5.65-5.17,8.69-6.81,1.24-.67,3.97-2.83,2.6-4.24-8.08-4.39-4.13,5.91-12.39,4.86-4.37-.56-8.91-6.77-9.73-10.79-1.39-6.85,2.58-13.37,9.34-15.06,1.12-.28,3.23.51,2.85-1.01-1.21-.45-2.99-1-4.05-1.65-14.02-8.69-27.42-25.97-31.39-42.05-3.35-13.54-3.31-24.85-5.21-38.13-2.91-20.46-16.19-36.54-36.42-41.58-1.74-.43-3.77-.43-5.5-.88-3.33-.86-6.19-2.9-9.55-3.68-4.05-.94-8.65-1.16-12.79-1.12l17.8,7.97c11.03,5.91,28.39,20.41,31.34,32.98,2.44,10.4,2.49,35.09,1.49,45.94-.66,7.13-4.83,9.03-8.39,14.42-3.09,4.68-3.89,10.4-9.39,12.96-4.25,1.97-8.49,1.41-12.88,2.18s-8.72,1.75-12.93,3.03c-1.11,4.05-1.97,6.88-4.1,10.49-4.62,7.84-8.55,14.51-18.29,14.91-19.79.82-28.39-5.68-41.21,14.08-11.87,18.3-15.63,37.11-12.69,58.79.42,3.11,4.21,14.35,1.78,16.06-1.17.83-6.24-3.63-7.33-4.59-22.39-19.79-33.46-65.02-34.68-93.95-.49-11.72,1.05-23.31,2.3-34.91-.52-.59-4.29,3.61-4.74,4.15-9.37,11.19-12.13,28.86-14.87,42.83-5.13-1.77-4.66-9.82-6.61-14.14-6.75,7.36-13.5,15.8-18.26,24.62-10.26,19.01-5.67,44.05-.55,63.97,2.83,10.98,5.59,19.96,10.28,30.32,2.03,4.49,4.71,11.09,7.27,15.07.29.45-.05.82,1.02.59,1.73-5.2,1.68-11.23,4.17-16.14.9-1.78,2.45-4.57,4.74-3.03.91,4,1.32,8.1,1.99,12.15,1.84,11.12,4.99,28.7,9.56,38.79.64,1.43,4.16,6.35,3.23,7.42-.21.24-1.7-.45-1.32.7.14.44,4.66,6.89,5.24,7.53,5.25,5.69,14.66,12.03,20.76,17.56,2.42,2.19,7.44,6.27,9.12,8.67,2.07,2.95,4.27,9.36,6.14,13.01,1.81,3.53,5.68,8.95,6.85,12.31,1.3,3.73,1.43,8.88,2.31,12.8-2.58.45-6.55,2.72-8.82,3.09-1.42.23-4.09-.56-6.22-.33-1.68.18-3.72.92-5.29,1.55,4.1,4.41,7.99,9.04,12.08,13.46s8.68,8.71,12.78,13.22c1.31,1.44,6.94,7.44,7.32,8.65.8,2.55-1.19,10.7-2.77,12.79-.76,1.01-4.79,4.94-5.14,5.57-.19.33-.3,3.9-.6,5.11-.24.97-1.86,5.97-2.52,6.18C95.11,518.44,33.35,463.23,0,393.66v-2.3c9.12-17.18,15.86-35.45,24.03-53.07,5.43-11.72,11.59-23.16,17.2-34.8,6.15-12.76,11.72-27.12,18.53-39.4,3.49-6.28,8.16-11.83,11.08-18.47l-61.01-60.43,84.49-11.98c.65-.17,1.47-.25,1.93-.81.95-1.15,2.63-6.3,3.65-8.21,6.23-11.63,14.67-19.74,21.32-30.22,2.55-4.02,4.26-7.98,2.66-12.79-3.37-3.4-7.12-6.66-9.62-10.8-.6-.41-2.68,1.96-3.2,2.49-1.3,1.36-5.44,7.12-6.7,7.47-3.01.84-3.9-4.74-3.72-6.95.84-10.3,6.39-21.53,3.57-31.96-.71-2.63-2.35-5.23-3.18-7.76-1.47-4.48-3.86-15.59-3.07-19.98,1.04-5.73,11.89-7.93,15.4-11.97.73-.84.85-1.97,1.83-2.73,2.57-1.97,5.95-.03,8.89.21,12.84,1.05,22.63-2.9,34.73-3.58,1.07-.06,2.69.59,3.47.41.53-.12.72-2.19,3.18-1.77,1.41.24,8.19,4.38,9.62,5.48,7.33,5.62,12.45,17.05,15.82,25.46,1.22.12.73,0,.9-.68,1.34-5.56,1.3-12.63-1.24-17.8,2.25-2.94,3.9-1.06,5.82.91,3.9,4,8.2,11.86,9.06,17.4.16,1.01.02,5.23.3,5.66.45.68,1.92.63,2.06,1.2.25,1.05-.31,2.52-.18,3.74.84,7.56,2.22,17.09,12.3,14.29L265.26,0l78.65,159.69c6.21,2.65,11.41-1.39,16.47-4.59,7.13-4.5,13.66-10.44,21.06-14.52,20.61-11.34,18.44,10.39,19.76,24.09l3.99-2.16c16.68-1.41,31.16-10.03,46.51-15.52.78-.28,1.53-.65,2.4-.56l-.43,2.99c-5.68,7.02-14.35,13.55-17.46,22.23-.2.57-.49,1.04-.36,1.69l83.94,12.08c1.17.62-2.12,2.58-2.53,2.96-24.15,22.73-47.43,46.6-71.13,69.81-.93.91-3.32,2.06-3.39,3.37-.06,1.11.79,3.26.86,4.61.34,6.06-.52,9.67-4.18,14.51-4.63,6.14-12.31,10.79-18.41,15.81-1.94,1.59-4.73,1.74-3.44,4.38,3.02,6.2,14.9,15.89,19.83,22.13,8.06,10.22,13.74,20.82,22.36,31.01,5.55,6.56,12.28,25.42,15.66,34.06,7.81,19.99,14.94,40.25,18.83,61.44-20.59,26.12-46.06,48.67-74.4,66.13-1.41.87-12.17,7.56-12.73,7.1.98-4.43.26-9.34.44-13.93.99-25.51,4.16-51.01,2.3-76.62-.09-1.21-.79-2.18-.88-3.23-.93-10.56,1.96-27.95,4.2-38.6,2.64-12.5,8.05-20.35,3.99-33.91-2.37-7.88-7.33-15.89-8.17-24.22-.86-8.56,3.5-17.78.17-25.72-.66-1.58-2.13-3.13-2.62-4.91-4.48-.62-8.54-1.46-12.52-3.68-2.09-1.16-5.07-2.68-4.71-5.55,3.42-.06,5.63,2.77,8.88,4.11,8.27,3.41,16.22,3.04,23.1-2.93.44-.39,1.15,0,.85-1.19-5.07,2.04-11.53,1.57-16.52-.58-3.69-1.59-13.38-10.13-14.98-13.75-.97-2.19.28-3.34,2.32-2.32.35.17,3.91,4.89,5,5.94,4.65,4.48,9.15,7.72,15.79,8.38,4.86.49,17.18-2.59,19.84-7.02.47-.79.05-1.37.31-1.91.72-1.51,2.45-2.86,1.85-4.83-.5-1.68-6.79-2.7-5.4-6.71.73.42,3.27,1.82,3.87,1.82h6.84ZM265.26,24.18l-32.38,64.77c1.79-.33,3.9-1.35,5.72-1.38s3.67.88,5.68.74c3.73-.26,13.89-3.12,18.27-4.12,5.15-1.17,8.76-3.66,14.15-2.34,2.21.54,6.37,6.67,7.63,8.79,1.86,3.13,4.31,11.64,5.81,13.35s4.61.35,6.54,1.44c.6,5.65-5.9,6.61-5.38,12.43.31,3.48,6.41,14.77,8.38,18.55,5.32,10.2,12.61,16.75,8.79,29.27-3.17,10.37-7.26,13.12-2.5,24.65.81,1.96,7.61,14.48,8.79,14.47,6.73-11.94,11.82-25.1,21.46-35.13l.15-1.01L265.26,24.18ZM497.45,192.95l-64.25-9.06c-1.01.64.58,10.85,1.07,12.71,2.38,9.12,11.45,25.26,10.06,34.23-.33,2.11-1.52,4.2-1.95,6.26-.74,3.52-1.27,7.45-1.49,11.05l56.56-55.19ZM92.85,184.29l-60.66,8.89,45.38,44.01c5.9-5.64,9.28-14.53,16.52-18.43-1.63-11.31-2.94-23.13-1.24-34.47ZM94.22,220.32h-1.37s0,.91,0,.91h.67s.69-.91.69-.91Z" fill="#05588b"/>
  <path d="M265.26,24.18l71.1,144.48-.15,1.01c-9.64,10.03-14.73,23.19-21.46,35.13-1.18.01-7.98-12.51-8.79-14.47-4.76-11.54-.67-14.28,2.5-24.65,3.82-12.52-3.47-19.07-8.79-29.27-1.97-3.78-8.06-15.07-8.38-18.55-.52-5.82,5.98-6.78,5.38-12.43-1.93-1.09-5.07.26-6.54-1.44s-3.95-10.22-5.81-13.35c-1.26-2.12-5.42-8.25-7.63-8.79-5.39-1.32-9,1.17-14.15,2.34-4.38,1-14.54,3.86-18.27,4.12-2.01.14-3.86-.77-5.68-.74s-3.94,1.05-5.72,1.38l32.38-64.77Z" fill="#fff"/>
  <path d="M497.45,192.95l-56.56,55.19c.22-3.6.75-7.53,1.49-11.05.43-2.06,1.62-4.15,1.95-6.26,1.39-8.97-7.68-25.11-10.06-34.23-.48-1.86-2.08-12.07-1.07-12.71l64.25,9.06Z" fill="#fff"/>
  <path d="M92.85,184.29c-1.7,11.34-.39,23.16,1.24,34.47-7.24,3.9-10.62,12.79-16.52,18.43l-45.38-44.01,60.66-8.89Z" fill="#fff"/>
  <polygon points="94.22 220.32 93.52 221.23 92.85 221.23 92.85 220.32 94.22 220.32" fill="#05588b"/>
</svg>