<?xml version="1.0" encoding="UTF-8"?>
<svg id="Layer_1" data-name="Layer 1" xmlns="http://www.w3.org/2000/svg" xmlns:xlink="http://www.w3.org/1999/xlink" viewBox="0 0 576 576">
  <defs>
    <clipPath id="clippath">
      <circle cx="288" cy="288" r="288" fill="none"/>
    </clipPath>
  </defs>
  <path d="M364.91,192.77l-.15,1.02c-9.71,10.11-14.84,23.37-21.62,35.4-1.19.01-8.04-12.61-8.86-14.58-4.8-11.63-.68-14.39,2.52-24.84,3.85-12.62-3.5-19.21-8.86-29.49-1.98-3.81-8.12-15.18-8.44-18.69-.52-5.86,6.03-6.83,5.42-12.52-1.94-1.1-5.11.26-6.59-1.45s-3.98-10.3-5.85-13.45c-1.27-2.14-5.46-8.31-7.69-8.86-5.43-1.33-9.07,1.18-14.26,2.36-4.41,1.01-14.65,3.89-18.41,4.15-2.03.14-3.89-.78-5.72-.75s-3.97,1.06-5.76,1.39l32.63-65.26h.01" fill="#fff"/>
  <path d="M527.22,217.24l-56.99,55.61c.22-3.63.76-7.59,1.5-11.13.43-2.08,1.63-4.18,1.96-6.31,1.4-9.04-7.74-25.3-10.14-34.49-.48-1.87-2.1-12.16-1.08-12.81l64.74,9.13Z" fill="#fff"/>
  <path d="M119.55,208.52c-1.71,11.43-.39,23.34,1.25,34.73-7.3,3.93-10.7,12.89-16.65,18.57l-45.72-44.34,61.12-8.96h0Z" fill="#fff"/>
  <polygon points="120.93 244.82 120.22 245.74 119.55 245.74 119.55 244.82 120.93 244.82" fill="#05588b"/>
  <g clip-path="url(#clippath)">
    <path d="M470.46,296.3l.61-.76c.8-6.53-3.41-13.1-4.07-19.23-1.12-10.3,4.74-21.12.12-31.84l-3.79-9.3c1.36,9.04-1.81,15.33-5.74,22.98-1.02,2-3.24,4.49-3.44,6.71-.37,4.38,3.72,10.15,2.53,13.99-.94,3-3.13,1.26-5.02,1.37-5.3.32-13.37,9.89-19.48,11.37-9.15,2.21-11.72-2.55-18.6-2.52-7.31.03-9.44,6.16-16.42,7.93-9.08,2.3-19.38,2.36-28.68,1.64-4.08,6.98-10.6,11.22-17.36,15.31-.38.23-.88.29-1.32.27.72,1.19.79,3.08,1.61,4.13s2.06.85,2.74,1.85c1.2,1.74,1.91,6.19,3.08,8.4s3.69,4.25,5.17,6.33c16.95,23.82,6.19,41.44,8.59,67.7.89,9.65,5.58,19.68,8.33,28.89,9.04,30.2,7.71,56.47.67,86.86-3.32,14.33-6.23,23.83-7.69,38.74-.65,6.67-2.05,13.1-3.91,19.54-1.1,1.54-27.53,6.25-31.33,6.82-24.82,3.73-49.77,4.17-74.76,1.93-.65-.15-1.65-3.89-1.58-4.74.31-3.91,7.59-6.17,9.2-9.19,1.17-2.2,2.16-7.69,3.22-10.57,2.12-5.7,4.69-11.23,7.16-16.78.46-2.72-4.09-6.05-2.85-9.21l16.16-28.02c.25-5.52-8.46-14.67-6.46-19.31.88-2.04,4.12-1.97,5.95-2.78,6.58-2.88,16.35-12.64,20.54-18.52,9.12-12.77,7.11-27.55,9.06-42.42,2.43-18.6,11.71-32.35,8.63-51.93-2.72-17.3-13.66-35.25-.18-50.84,2.51-2.9,5.36-3.68,8.26-5.99,1.76-1.4,3.08-3.4,5.07-4.58,1.21-.73,3.46-.46,3.45-2.3-1.35.43-2.95.77-4.36.92-14.82,1.59-19.69-.61-33.4-4.28-1.97-.52-4.08-.51-5.91-.98-6.27-1.57-14.67-8.31-18.36-13.57l6.59,4.67c8.4,5.11,25.04,8.58,35.01,9.56,12.21,1.2,28.98-3.34,37.63-12.44,5.52-5.81-1.43-7.12-4.78-10.76-5.43-5.89,5.69-5.21,8.76-6.86,1.25-.68,4-2.85,2.62-4.27-8.14-4.42-4.16,5.95-12.48,4.9-4.4-.56-8.98-6.82-9.8-10.87-1.4-6.9,2.6-13.47,9.41-15.17,1.13-.28,3.25.51,2.87-1.02-1.22-.45-3.01-1.01-4.08-1.66-14.13-8.76-27.63-26.17-31.63-42.37-3.38-13.64-3.34-25.04-5.25-38.42-2.93-20.62-16.31-36.82-36.7-41.9-1.75-.43-3.8-.43-5.54-.89-3.36-.87-6.24-2.92-9.62-3.71-4.08-.95-8.72-1.17-12.89-1.13l17.94,8.03c11.11,5.95,28.61,20.57,31.58,33.23,2.46,10.48,2.51,35.36,1.5,46.29-.67,7.18-4.87,9.1-8.45,14.53-3.11,4.72-3.92,10.48-9.46,13.06-4.28,1.98-8.55,1.42-12.98,2.2s-8.79,1.76-13.03,3.05c-1.12,4.08-1.98,6.93-4.13,10.57-4.66,7.9-8.61,14.62-18.43,15.02-19.94.83-28.61-5.72-41.52,14.19-11.96,18.44-15.75,37.39-12.79,59.24.42,3.13,4.24,14.46,1.79,16.18-1.18.84-6.29-3.66-7.39-4.62-22.56-19.94-33.71-65.51-34.94-94.66-.49-11.81,1.06-23.49,2.32-35.18-.52-.59-4.32,3.64-4.78,4.18-9.44,11.28-12.22,29.08-14.98,43.16-5.17-1.78-4.7-9.89-6.66-14.25-6.8,7.42-13.6,15.92-18.4,24.81-10.34,19.15-5.71,44.38-.55,64.46,2.85,11.06,5.63,20.11,10.36,30.55,2.05,4.52,4.75,11.17,7.33,15.18.29.45-.05.83,1.03.59,1.74-5.24,1.69-11.32,4.2-16.26.91-1.79,2.47-4.6,4.78-3.05.92,4.03,1.33,8.16,2.01,12.24,1.85,11.2,5.03,28.92,9.63,39.08.64,1.44,4.19,6.4,3.25,7.48-.21.24-1.71-.45-1.33.71.14.44,4.7,6.94,5.28,7.59,5.29,5.73,14.77,12.12,20.92,17.69,2.44,2.21,7.5,6.32,9.19,8.74,2.09,2.97,4.3,9.43,6.19,13.11,1.82,3.56,5.72,9.02,6.9,12.4,1.31,3.76,1.44,8.95,2.33,12.9-2.6.45-6.6,2.74-8.89,3.11-1.43.23-4.12-.56-6.27-.33-1.69.18-3.75.93-5.33,1.56,4.13,4.44,8.05,9.11,12.17,13.56s8.75,8.78,12.88,13.32c1.32,1.45,6.99,7.5,7.38,8.72.81,2.57-1.2,10.78-2.79,12.89-.77,1.02-4.83,4.98-5.18,5.61-.19.33-.3,3.93-.6,5.15-.24.98-1.87,6.02-2.54,6.23-73.73-25.02-135.96-80.65-169.56-150.75v-2.32c9.19-17.31,15.98-35.72,24.21-53.47,5.47-11.81,11.68-23.34,17.33-35.06,6.2-12.86,11.81-27.33,18.67-39.7,3.52-6.33,8.22-11.92,11.16-18.61l-61.47-60.89,85.13-12.07c.65-.17,1.48-.25,1.94-.82.96-1.16,2.65-6.35,3.68-8.27,6.28-11.72,14.78-19.89,21.48-30.45,2.57-4.05,4.29-8.04,2.68-12.89-3.4-3.43-7.17-6.71-9.69-10.88-.6-.41-2.7,1.97-3.22,2.51-1.31,1.37-5.48,7.17-6.75,7.53-3.03.85-3.93-4.78-3.75-7,.85-10.38,6.44-21.69,3.6-32.2-.72-2.65-2.37-5.27-3.2-7.82-1.48-4.51-3.89-15.71-3.09-20.13,1.05-5.77,11.98-7.99,15.52-12.06.74-.85.86-1.98,1.84-2.75,2.59-1.98,6-.03,8.96.21,12.94,1.06,22.8-2.92,34.99-3.61,1.08-.06,2.71.59,3.5.41.53-.12.73-2.21,3.2-1.78,1.42.24,8.25,4.41,9.69,5.52,7.39,5.66,12.54,17.18,15.94,25.65,1.23.12.74,0,.91-.69,1.35-5.6,1.31-12.73-1.25-17.94,2.27-2.96,3.93-1.07,5.86.92,3.93,4.03,8.26,11.95,9.13,17.53.16,1.02.02,5.27.3,5.7.45.69,1.93.63,2.08,1.21.25,1.06-.31,2.54-.18,3.77.85,7.62,2.24,17.22,12.39,14.4l45.68-90.6,79.25,160.9c6.26,2.67,11.5-1.4,16.6-4.62,7.18-4.53,13.76-10.52,21.22-14.63,20.77-11.43,18.58,10.47,19.91,24.27l4.02-2.18c16.81-1.42,31.4-10.11,46.86-15.64.79-.28,1.54-.65,2.42-.56l-.43,3.01c-5.72,7.07-14.46,13.65-17.59,22.4-.2.57-.49,1.05-.36,1.7l84.58,12.17c1.18.62-2.14,2.6-2.55,2.98-24.33,22.9-47.79,46.95-71.67,70.34-.94.92-3.35,2.08-3.42,3.4-.06,1.12.8,3.28.87,4.65.34,6.11-.52,9.74-4.21,14.62-4.67,6.19-12.4,10.87-18.55,15.93-1.95,1.6-4.77,1.75-3.47,4.41,3.04,6.25,15.01,16.01,19.98,22.3,8.12,10.3,13.84,20.98,22.53,31.25,5.59,6.61,12.37,25.61,15.78,34.32,7.87,20.14,15.05,40.56,18.97,61.91-20.75,26.32-46.41,49.04-74.97,66.63-1.42.88-12.26,7.62-12.83,7.15.99-4.46.26-9.41.44-14.04,1-25.7,4.19-51.4,2.32-77.2-.09-1.22-.8-2.2-.89-3.25-.94-10.64,1.97-28.16,4.23-38.89,2.66-12.6,8.11-20.5,4.02-34.17-2.39-7.94-7.39-16.01-8.23-24.4-.87-8.63,3.53-17.92.17-25.92-.67-1.59-2.15-3.15-2.64-4.95-4.51-.62-8.6-1.47-12.62-3.71-2.11-1.17-5.11-2.7-4.75-5.59,3.45-.06,5.67,2.79,8.95,4.14,8.33,3.44,16.34,3.06,23.28-2.95.44-.39,1.16,0,.86-1.2-5.11,2.06-11.62,1.58-16.65-.58-3.72-1.6-13.48-10.21-15.09-13.85-.98-2.21.28-3.37,2.34-2.34.35.17,3.94,4.93,5.04,5.99,4.69,4.51,9.22,7.78,15.91,8.44,4.9.49,17.31-2.61,19.99-7.07.47-.8.05-1.38.31-1.92.73-1.52,2.47-2.88,1.86-4.87-.5-1.69-6.84-2.72-5.44-6.76.74.42,3.29,1.83,3.9,1.83h6.89l.04.03ZM293.27,47.19l-32.63,65.26c1.8-.33,3.93-1.36,5.76-1.39s3.7.89,5.72.75c3.76-.26,14-3.14,18.41-4.15,5.19-1.18,8.83-3.69,14.26-2.36,2.23.54,6.42,6.72,7.69,8.86,1.87,3.15,4.34,11.73,5.85,13.45s4.65.35,6.59,1.45c.6,5.69-5.94,6.66-5.42,12.52.31,3.51,6.46,14.88,8.44,18.69,5.36,10.28,12.71,16.88,8.86,29.49-3.19,10.45-7.32,13.22-2.52,24.84.82,1.97,7.67,14.59,8.86,14.58,6.78-12.03,11.91-25.29,21.62-35.4l.15-1.02-71.65-145.58ZM527.22,217.24l-64.74-9.13c-1.02.64.58,10.93,1.08,12.81,2.4,9.19,11.54,25.45,10.14,34.49-.33,2.13-1.53,4.23-1.96,6.31-.75,3.55-1.28,7.51-1.5,11.13l56.99-55.61ZM119.55,208.52l-61.12,8.96,45.72,44.34c5.94-5.68,9.35-14.64,16.65-18.57-1.64-11.4-2.96-23.31-1.25-34.73h0ZM120.93,244.82h-1.38v.92h.68l.7-.92h.01Z" fill="#05588b"/>
  </g>
</svg>